<?xml version="1.0" encoding="UTF-8" standalone="no"?>
<!-- Created with Inkscape (http://www.inkscape.org/) -->

<svg
   width="14mm"
   height="14mm"
   viewBox="0 0 14 14"
   version="1.1"
   id="svg5"
   inkscape:version="1.4.1 (93de688d07, 2025-03-30)"
   sodipodi:docname="favicon.svg"
   xml:space="preserve"
   inkscape:export-filename="favicon.png"
   inkscape:export-xdpi="87.085709"
   inkscape:export-ydpi="87.085709"
   xmlns:inkscape="http://www.inkscape.org/namespaces/inkscape"
   xmlns:sodipodi="http://sodipodi.sourceforge.net/DTD/sodipodi-0.dtd"
   xmlns="http://www.w3.org/2000/svg"
   xmlns:svg="http://www.w3.org/2000/svg"><sodipodi:namedview
     id="namedview7"
     pagecolor="#ffffff"
     bordercolor="#000000"
     borderopacity="1"
     inkscape:showpageshadow="0"
     inkscape:pageopacity="1"
     inkscape:pagecheckerboard="0"
     inkscape:deskcolor="#ffffff"
     inkscape:document-units="mm"
     showgrid="false"
     inkscape:zoom="1.5145346"
     inkscape:cx="143.27834"
     inkscape:cy="32.02304"
     inkscape:window-width="1920"
     inkscape:window-height="1017"
     inkscape:window-x="0"
     inkscape:window-y="1026"
     inkscape:window-maximized="1"
     inkscape:current-layer="layer1"><inkscape:grid
       type="xygrid"
       id="grid132"
       originx="-79.066475"
       originy="-233.9545"
       spacingy="1"
       spacingx="1"
       units="mm"
       visible="false" /></sodipodi:namedview><defs
     id="defs2" /><g
     inkscape:label="Ebene 1"
     inkscape:groupmode="layer"
     id="layer1"
     transform="translate(-79.066475,-45.096525)"><rect
       style="font-variation-settings:normal;opacity:1;vector-effect:none;fill:#c6bea9;fill-opacity:1;fill-rule:evenodd;stroke:none;stroke-width:1.01607;stroke-linecap:butt;stroke-linejoin:miter;stroke-miterlimit:4;stroke-dasharray:none;stroke-dashoffset:0;stroke-opacity:1;-inkscape-stroke:none;stop-color:#000000;stop-opacity:1"
       id="rect1"
       width="14"
       height="14"
       x="79.066475"
       y="45.096527"
       ry="1.8226987" /><path
       style="display:inline;fill:#534a43;stroke-width:1.54801;fill-opacity:1"
       d="m 88.474302,55.712531 c -0.05183,-0.02138 -0.148451,-0.096 -0.311976,-0.14085 -0.363154,-0.09962 -0.695594,-0.247215 -0.695594,-0.308841 0,-0.02722 -0.0618,-0.115841 -0.137473,-0.196961 -0.114394,-0.12283 -0.130645,-0.19679 -0.09705,-0.442442 0.02237,-0.162231 0.06549,-0.327013 0.09612,-0.36619 0.03063,-0.03917 0.07636,-0.157353 0.101548,-0.262612 0.02524,-0.105249 0.138399,-0.296767 0.251572,-0.425571 0.113164,-0.128813 0.24937,-0.2993 0.302767,-0.378857 0.05336,-0.07959 0.189622,-0.188858 0.302786,-0.242884 0.113164,-0.05399 0.304313,-0.193961 0.424798,-0.31097 0.212323,-0.206214 0.355824,-0.270696 0.942045,-0.423351 0.153095,-0.03989 0.294557,-0.114557 0.314266,-0.165942 0.04069,-0.106013 0.31715,-0.127034 0.377896,-0.02875 0.02201,0.03558 0.107738,0.06468 0.190421,0.06468 0.09412,0 0.240702,0.09992 0.39182,0.267193 0.208056,0.230299 0.237045,0.299668 0.20988,0.502226 -0.04887,0.364277 -0.388155,0.81272 -0.752109,0.994086 -0.172616,0.08597 -0.354144,0.189927 -0.403391,0.230918 -0.385477,0.320735 -0.738489,0.532159 -0.927779,0.555633 -0.303225,0.03764 -0.488275,0.10047 -0.488275,0.165842 0,0.09831 0.544565,0.373692 0.841188,0.4254 0.160148,0.02794 0.502757,0.04707 0.761353,0.04258 0.388963,-0.0072 0.506322,-0.03531 0.679424,-0.164972 0.115023,-0.08624 0.2757,-0.176946 0.356928,-0.201632 0.0813,-0.0247 0.224954,-0.116506 0.319423,-0.204049 0.322882,-0.299237 0.481241,-0.07717 0.212116,0.297458 -0.142261,0.198102 -1.376697,0.712941 -1.709335,0.712941 -0.123225,0 -0.242031,0.02911 -0.264013,0.06468 -0.02201,0.03557 -1.188998,-0.01743 -1.289361,-0.05884 z m 0.521487,-1.494308 c 0.225402,-0.142351 0.434212,-0.258821 0.46401,-0.258821 0.143968,0 0.596049,-0.643984 0.596049,-0.849066 0,-0.136009 -0.207526,-0.315668 -0.364618,-0.315668 -0.232239,0 -1.003626,0.823194 -1.148223,1.225327 -0.103875,0.288718 -0.101863,0.457058 0.0045,0.457058 0.02075,0 0.222141,-0.11647 0.447544,-0.25883 z m -9.163638,2.20433 c 0,-0.113784 0.101908,-0.427467 0.226481,-0.697059 0.124563,-0.269601 0.226471,-0.517767 0.226471,-0.551482 0,-0.03369 0.08732,-0.250035 0.194123,-0.480702 0.106767,-0.230667 0.194122,-0.45668 0.194122,-0.502235 0,-0.09133 0.377105,-0.639465 0.463615,-0.673881 0.09215,-0.03665 0.493863,-0.677384 0.678526,-1.082248 0.168511,-0.369443 0.235482,-0.854053 0.113568,-0.821856 -0.206088,0.05444 -0.459465,0.187286 -0.818451,0.429182 -0.09758,0.06576 -0.221342,0.102725 -0.275,0.08211 -0.12725,-0.04878 -0.126549,-0.235616 8.63e-4,-0.235616 0.05417,0 0.129783,-0.06872 0.16807,-0.15279 0.03827,-0.084 0.161414,-0.201696 0.273608,-0.26148 0.470074,-0.250466 1.107788,-0.680331 1.359781,-0.916586 0.09333,-0.0875 0.476399,-0.222123 0.632082,-0.222123 0.103875,0 0.113586,0.038 0.07851,0.307367 -0.02201,0.169041 -0.09425,0.422013 -0.160525,0.562154 -0.0663,0.14015 -0.120539,0.323582 -0.120539,0.40764 0,0.178069 -0.142693,0.476112 -0.284163,0.593525 -0.06387,0.053 -0.08624,0.143689 -0.06342,0.257742 0.02318,0.116129 2.96e-4,0.204876 -0.06738,0.261103 -0.05642,0.0468 -0.102644,0.120782 -0.102644,0.164289 0,0.09643 -0.222959,0.307582 -0.272475,0.258066 -0.01958,-0.01949 -0.05354,0.03629 -0.07555,0.12407 -0.0424,0.169031 -0.516923,0.687634 -0.629162,0.687634 -0.03647,0 -0.05722,0.0944 -0.04608,0.209772 0.02704,0.279545 0.163722,0.294844 0.515162,0.05767 0.156419,-0.105564 0.4148,-0.242471 0.574174,-0.304232 0.159384,-0.06172 0.348026,-0.162321 0.419202,-0.223471 0.07124,-0.06118 0.391478,-0.24999 0.711773,-0.41966 0.320294,-0.169669 0.655159,-0.365049 0.744131,-0.434177 0.182004,-0.141398 0.381435,-0.477665 0.385541,-0.65003 0.0018,-0.06279 0.03099,-0.164674 0.06549,-0.226471 0.146285,-0.2621 0.41656,-1.537986 0.348924,-1.647431 -0.01842,-0.02983 -0.133125,-0.03548 -0.25494,-0.01267 -0.203672,0.03818 -0.221432,0.02866 -0.221432,-0.118698 0,-0.211954 0.188166,-0.43919 0.494878,-0.597675 0.137149,-0.07079 0.263824,-0.147543 0.281612,-0.170442 0.07726,-0.09947 0.534243,-0.315479 0.667439,-0.315479 0.19609,0 0.348521,0.286759 0.326772,0.614716 -0.0093,0.14236 -0.07591,0.496809 -0.147678,0.787683 -0.07187,0.290865 -0.144741,0.596606 -0.162214,0.679424 -0.01752,0.08283 -0.05094,0.216087 -0.07447,0.296156 -0.02614,0.08956 -0.01545,0.145594 0.02956,0.145594 0.0398,0 0.07223,-0.02282 0.07223,-0.05076 0,-0.02794 0.08004,-0.09847 0.177943,-0.156787 0.09783,-0.0583 0.236569,-0.159231 0.308221,-0.224253 0.07169,-0.06504 0.333706,-0.289068 0.582349,-0.497887 0.24866,-0.208819 0.495246,-0.449035 0.547969,-0.53383 0.05282,-0.0848 0.113784,-0.154164 0.135605,-0.154164 0.116874,0 0.342564,-0.28958 0.453635,-0.581873 0.124618,-0.328011 0.124618,-0.334973 0.0018,-0.506807 -0.344523,-0.483838 -0.08858,-0.929621 0.685802,-1.194362 0.279877,-0.09568 0.923457,-0.08579 1.115846,0.01716 0.169059,0.09048 0.228268,0.337588 0.126783,0.528925 -0.09707,0.182956 -0.54797,0.636807 -0.790468,0.795705 -0.09645,0.06324 -0.175392,0.14934 -0.175392,0.19141 0,0.08238 -0.459186,0.555704 -0.53913,0.555704 -0.02668,0 -0.234476,0.181986 -0.461944,0.404415 -0.50352,0.49238 -0.752378,0.693581 -0.859254,0.694731 -0.04438,4.76e-4 -0.08085,0.02542 -0.08085,0.05543 0,0.03001 -0.09845,0.107513 -0.218656,0.172275 -0.134212,0.07232 -0.261462,0.214757 -0.329529,0.369047 -0.06612,0.150005 -0.210589,0.314248 -0.358267,0.407469 -0.13608,0.08588 -0.267238,0.188265 -0.291484,0.227496 -0.02435,0.03926 -0.114862,0.09822 -0.201292,0.131104 -0.08651,0.03288 -0.179227,0.111142 -0.206115,0.173945 -0.11161,0.260645 -0.310358,0.537325 -0.408781,0.569126 -0.107899,0.03486 -0.222276,0.501534 -0.151091,0.616648 0.06459,0.104477 0.195604,0.06702 0.353479,-0.100992 0.08364,-0.08894 0.177961,-0.161773 0.209708,-0.161773 0.0318,0 0.150472,-0.06962 0.263735,-0.154748 0.113317,-0.08507 0.406202,-0.247556 0.65091,-0.360971 0.438166,-0.203079 0.520714,-0.254743 0.739074,-0.462699 0.06046,-0.05767 0.222142,-0.144633 0.359049,-0.193206 0.136844,-0.0486 0.348655,-0.19874 0.470577,-0.333689 0.121977,-0.134958 0.332557,-0.303163 0.468089,-0.373808 0.135605,-0.07061 0.30487,-0.193584 0.376288,-0.273204 0.226086,-0.252002 0.445559,-0.413209 0.526006,-0.386394 0.04276,0.01428 0.07789,-0.01824 0.07789,-0.07214 0,-0.0539 0.06549,-0.118311 0.145513,-0.143015 0.16551,-0.05103 0.866503,-0.773912 0.909318,-0.937661 0.0345,-0.132092 -0.118734,-0.514399 -0.206232,-0.514399 -0.08112,0 -0.167181,-0.252209 -0.143492,-0.420594 0.02183,-0.155332 0.241186,-0.404181 0.40101,-0.45491 0.06333,-0.02012 0.152943,-0.122076 0.199261,-0.226616 0.04627,-0.10453 0.157299,-0.220794 0.246711,-0.258344 0.08947,-0.03755 0.242103,-0.112104 0.339294,-0.165681 0.141947,-0.07825 0.205577,-0.0822 0.323529,-0.02012 0.218611,0.11514 0.249837,0.190798 0.21084,0.510913 -0.01949,0.160147 -0.04644,0.462115 -0.05992,0.671042 -0.03549,0.549515 -0.336878,1.067867 -0.624598,1.073885 -0.114862,0.0027 -0.355671,0.208011 -1.226181,1.046791 -0.327095,0.315174 -0.631488,0.573043 -0.676414,0.573043 -0.04492,0 -0.117027,0.04258 -0.160219,0.09461 -0.139477,0.168124 -1.064102,0.633123 -1.251272,0.629305 -0.113316,-0.0027 -0.19706,0.03728 -0.222734,0.105313 -0.07339,0.194571 -0.376881,0.451407 -0.78806,0.666946 -0.238042,0.12477 -0.439127,0.281962 -0.492336,0.38484 -0.09551,0.184573 -0.214613,0.254302 -0.434635,0.254302 -0.07582,0 -0.25785,0.127995 -0.414224,0.291188 -0.15341,0.160147 -0.301313,0.291278 -0.328604,0.291395 -0.102483,4.67e-4 -1.052586,0.92043 -1.052586,1.01914 0,0.179192 -0.672524,0.779211 -0.926862,0.826922 -0.126208,0.02372 -0.258462,0.02515 -0.293901,0.0036 -0.03539,-0.02192 -0.08462,-0.0072 -0.109355,0.03288 -0.03234,0.05237 -0.05893,0.04995 -0.09515,-0.009 -0.03018,-0.04887 0.0063,-0.141623 0.08999,-0.232535 0.266529,-0.287442 0.432677,-0.692971 0.473587,-1.155877 0.01626,-0.184438 0.0992,-0.444543 0.19282,-0.604987 0.202854,-0.347622 0.138713,-0.448559 -0.196117,-0.308652 -0.129235,0.05399 -0.32961,0.168107 -0.445289,0.253575 -0.115679,0.08543 -0.348475,0.220506 -0.517318,0.30009 -0.168852,0.07959 -0.323717,0.171736 -0.344136,0.204786 -0.02039,0.03306 -0.137069,0.101845 -0.259181,0.152862 -0.122129,0.05103 -0.22206,0.124896 -0.22206,0.164153 0,0.03926 -0.08337,0.100435 -0.185202,0.135937 -0.101863,0.03548 -0.216357,0.132928 -0.254419,0.216491 -0.03809,0.08355 -0.18663,0.217911 -0.330113,0.298555 -0.244888,0.137634 -0.459699,0.445002 -0.459699,0.657764 0,0.162555 -0.302615,0.383071 -0.576007,0.419741 -0.262558,0.03521 -0.265181,0.03351 -0.265181,-0.171304 z"
       id="path4"
       sodipodi:nodetypes="sscsssssssssssssssssssssssssscscsssccsccsssssssssssssssssssssssssssssssssssscsscsssssssscsssssssssssssssssssssssssssssssssssssssssssssssssssssssssssssssssssssccsc" /></g></svg>
