<?xml version="1.0" encoding="UTF-8" standalone="no"?>
<!-- Created with Inkscape (http://www.inkscape.org/) -->

<svg
   width="4.5440102mm"
   height="6.2323833mm"
   viewBox="0 0 4.5440102 6.2323833"
   version="1.1"
   id="svg5"
   inkscape:version="1.4 (e7c3feb100, 2024-10-09)"
   sodipodi:docname="12_8.svg"
   xmlns:inkscape="http://www.inkscape.org/namespaces/inkscape"
   xmlns:sodipodi="http://sodipodi.sourceforge.net/DTD/sodipodi-0.dtd"
   xmlns="http://www.w3.org/2000/svg"
   xmlns:svg="http://www.w3.org/2000/svg">
  <sodipodi:namedview
     id="namedview7"
     pagecolor="#ffffff"
     bordercolor="#000000"
     borderopacity="1"
     inkscape:showpageshadow="0"
     inkscape:pageopacity="1"
     inkscape:pagecheckerboard="0"
     inkscape:deskcolor="#ffffff"
     inkscape:document-units="mm"
     showgrid="false"
     inkscape:zoom="1.2847079"
     inkscape:cx="-61.881771"
     inkscape:cy="39.308546"
     inkscape:window-width="1920"
     inkscape:window-height="1017"
     inkscape:window-x="0"
     inkscape:window-y="1012"
     inkscape:window-maximized="1"
     inkscape:current-layer="layer1">
    <inkscape:grid
       type="xygrid"
       id="grid132"
       originx="-104.26454"
       originy="-256.28218"
       spacingy="1"
       spacingx="1"
       units="mm"
       visible="false" />
  </sodipodi:namedview>
  <defs
     id="defs2" />
  <g
     inkscape:label="Ebene 1"
     inkscape:groupmode="layer"
     id="layer1"
     transform="translate(-104.26453,-32.950217)">
    <g
       id="g8"
       transform="translate(0.23082493,-10.954197)">
      <path
         id="use136"
         d="m 104.8417,46.232975 c 0,0.321151 -0.19113,0.616188 -0.49506,0.616188 a 0.09612313,0.09612313 0 0 0 -0.0956,0.09557 c 0,0.04334 0.035,0.08668 0.0956,0.08668 0.30393,0 0.59896,-0.08668 0.90289,-0.08668 0.30393,0 0.59896,0.08668 0.90289,0.08668 0.0611,0 0.0867,-0.04334 0.0867,-0.08668 0,-0.04334 -0.0261,-0.09557 -0.0867,-0.09557 -0.30393,0 -0.5034,-0.295037 -0.5034,-0.616744 z m 0.40783,-2.214166 c -0.18224,0 -0.36449,-0.182245 -0.40838,-0.08668 l -0.79844,1.545194 c -0.009,0.01722 -0.009,0.04334 -0.009,0.06112 0,0.06056 0.0611,0.103902 0.11335,0.103902 0.0344,0 0.0695,-0.01722 0.095,-0.06112 l 0.40839,-0.781208 c 0.008,-0.03445 0.0344,-0.04334 0.0695,-0.04334 0.0517,0 0.12113,0.04334 0.12113,0.138906 v 1.33739 h 0.80787 v -2.179717 c 0,-0.07834 -0.0522,-0.130572 -0.0956,-0.130572 -0.0522,0 -0.17391,0.09557 -0.30393,0.09557 m 0,0"
         style="stroke-width:0.555625" />
      <path
         id="use137"
         d="m 107.6665,47.031408 c 0.62452,0 0.91122,-0.57285 0.91122,-0.720646 0,-0.05223 -0.0522,-0.08668 -0.0956,-0.08668 -0.12168,0 -0.0522,0.260588 -0.36449,0.260588 -0.3556,0 -0.52118,-0.38227 -1.05902,-0.38227 h -0.0439 c 0.60786,-0.303927 1.44129,-0.390605 1.44129,-1.276271 0,-0.555625 -0.57285,-0.894556 -1.1807,-0.894556 -0.51229,0 -0.97234,0.338931 -0.97234,0.825103 0,0.216694 0.16502,0.38227 0.38227,0.38227 a 0.37226877,0.37226877 0 0 0 0.37338,-0.38227 c 0,-0.147241 -0.19114,-0.225584 -0.19114,-0.37338 0,-0.19058 0.20836,-0.277813 0.40783,-0.277813 0.30393,0 0.38227,0.37338 0.38227,0.720646 0,1.077357 -1.44129,1.163479 -1.44129,2.118598 0,0.05223 0.0522,0.08668 0.0956,0.08668 0.0433,0 0.0778,-0.02611 0.0867,-0.07779 a 0.37004627,0.37004627 0 0 1 0.37338,-0.348377 c 0.32115,0 0.33004,0.425609 0.89456,0.425609 m 0,0"
         style="stroke-width:0.555625" />
      <path
         id="use138"
         d="m 106.77917,48.296566 -0.67731,-0.39116 a 0.33893127,0.33893127 0 0 1 -0.16502,-0.294481 c 0,-0.19169 0.15613,-0.40005 0.42561,-0.40005 0.34726,0 0.6773,0.173911 0.6773,0.486172 0,0.226139 -0.11334,0.425609 -0.26114,0.599519 m 0.23447,0.130017 c 0.19947,-0.20836 0.3556,-0.442833 0.3556,-0.729536 0,-0.442277 -0.50339,-0.659527 -1.00679,-0.659527 -0.73787,0 -1.12014,0.407829 -1.12014,0.842328 0,0.216693 0.11279,0.460057 0.33004,0.633412 -0.22558,0.216694 -0.44227,0.434499 -0.44227,0.73787 0,0.547291 0.57284,0.885667 1.1807,0.885667 0.7901,0 1.20682,-0.451168 1.20682,-0.920115 0,-0.442834 -0.33894,-0.694532 -0.5034,-0.790099 m -1.21571,0.225584 0.82511,0.468947 c 0.13001,0.08668 0.19057,0.216694 0.19057,0.3556 0,0.234474 -0.18224,0.477838 -0.50339,0.477838 -0.45117,0 -0.84233,-0.286703 -0.84233,-0.703422 0,-0.251698 0.1478,-0.433943 0.33004,-0.598963 m 0,0"
         style="stroke-width:0.555625" />
    </g>
  </g>
</svg>
