<?xml version="1.0" encoding="UTF-8" standalone="no"?>
<!-- Created with Inkscape (http://www.inkscape.org/) -->

<svg
   width="2.5870473mm"
   height="6.21134mm"
   viewBox="0 0 2.5870473 6.21134"
   version="1.1"
   id="svg5"
   inkscape:version="1.4 (e7c3feb100, 2024-10-09)"
   sodipodi:docname="2_4.svg"
   xmlns:inkscape="http://www.inkscape.org/namespaces/inkscape"
   xmlns:sodipodi="http://sodipodi.sourceforge.net/DTD/sodipodi-0.dtd"
   xmlns="http://www.w3.org/2000/svg"
   xmlns:svg="http://www.w3.org/2000/svg">
  <sodipodi:namedview
     id="namedview7"
     pagecolor="#ffffff"
     bordercolor="#000000"
     borderopacity="1"
     inkscape:showpageshadow="0"
     inkscape:pageopacity="1"
     inkscape:pagecheckerboard="0"
     inkscape:deskcolor="#ffffff"
     inkscape:document-units="mm"
     showgrid="false"
     inkscape:zoom="3.3986013"
     inkscape:cx="-36.338478"
     inkscape:cy="-27.511318"
     inkscape:window-width="1920"
     inkscape:window-height="1017"
     inkscape:window-x="0"
     inkscape:window-y="1012"
     inkscape:window-maximized="1"
     inkscape:current-layer="layer1">
    <inkscape:grid
       type="xygrid"
       id="grid132"
       originx="-105.24299"
       originy="-256.28218"
       spacingy="1"
       spacingx="1"
       units="mm"
       visible="false" />
  </sodipodi:namedview>
  <defs
     id="defs2" />
  <g
     inkscape:label="Ebene 1"
     inkscape:groupmode="layer"
     id="layer1"
     transform="translate(-105.243,-32.950216)">
    <g
       id="g1"
       transform="translate(36.506299,-0.01115481)">
      <path
         id="use73"
         d="m 70.290225,36.061206 c 0.624522,0 0.911225,-0.57285 0.911225,-0.720646 0,-0.05223 -0.05223,-0.08668 -0.09557,-0.08668 -0.121682,0 -0.05223,0.260588 -0.36449,0.260588 -0.3556,0 -0.521176,-0.38227 -1.059021,-0.38227 h -0.04389 c 0.607854,-0.303927 1.441291,-0.390604 1.441291,-1.276271 0,-0.555625 -0.572849,-0.894556 -1.180703,-0.894556 -0.512286,0 -0.972344,0.338931 -0.972344,0.825103 0,0.216694 0.165021,0.38227 0.38227,0.38227 a 0.37226875,0.37226875 0 0 0 0.37338,-0.38227 c 0,-0.147241 -0.191135,-0.225584 -0.191135,-0.37338 0,-0.190579 0.208359,-0.277812 0.407829,-0.277812 0.303927,0 0.38227,0.37338 0.38227,0.720645 0,1.077357 -1.441291,1.163479 -1.441291,2.118598 0,0.05223 0.05223,0.08668 0.09557,0.08668 0.04334,0 0.07779,-0.02611 0.08668,-0.07779 a 0.37004625,0.37004625 0 0 1 0.37338,-0.348376 c 0.321151,0 0.330041,0.425608 0.894556,0.425608 m 0,0"
         style="stroke-width:0.555625" />
      <path
         id="use74"
         d="m 69.613474,36.06454 c -0.05223,0 -0.104458,0.06112 -0.104458,0.130572 0,1.241266 -0.772319,1.944688 -0.772319,2.031365 0,0.06112 0.05167,0.173355 0.233918,0.173355 h 0.937895 c -0.0089,0.312817 -0.208359,0.590629 -0.494506,0.590629 -0.07001,0 -0.09612,0.05223 -0.09612,0.09557 0,0.04334 0.02611,0.08668 0.09557,0.08668 0.303926,0 0.598963,-0.08668 0.90289,-0.08668 0.303927,0 0.598964,0.08668 0.902891,0.08668 0.06112,0 0.08668,-0.04334 0.08668,-0.08668 0,-0.04334 -0.02556,-0.09557 -0.08668,-0.09557 -0.295037,0 -0.486172,-0.277812 -0.503396,-0.590629 h 0.494506 c 0.06945,0 0.113347,-0.06056 0.113347,-0.112792 A 0.10945813,0.10945813 0 0 0 71.2109,38.174248 h -0.495061 v -1.345723 c 0,-0.06945 -0.04334,-0.103902 -0.09557,-0.103902 -0.103902,0 -0.103902,0.173355 -0.242808,0.36449 -0.226139,0.295037 -0.468948,0.243363 -0.468948,0.486172 v 0.598963 h -0.937895 l 1.744663,-1.979136 c 0.01778,-0.01778 0.01778,-0.035 0.01778,-0.04389 0,-0.04334 -0.04334,-0.08668 -0.103902,-0.08668 -0.06112,0 -0.277812,0.09557 -0.521176,0.09557 -0.234474,0 -0.460058,-0.09557 -0.494506,-0.09557 m 0,0"
         style="stroke-width:0.555625" />
    </g>
  </g>
</svg>
