<?xml version="1.0" encoding="UTF-8" standalone="no"?>
<!-- Created with Inkscape (http://www.inkscape.org/) -->

<svg
   width="2.387521mm"
   height="6.2052212mm"
   viewBox="0 0 2.387521 6.2052213"
   version="1.1"
   id="svg5"
   inkscape:version="1.4 (e7c3feb100, 2024-10-09)"
   sodipodi:docname="2_8.svg"
   xmlns:inkscape="http://www.inkscape.org/namespaces/inkscape"
   xmlns:sodipodi="http://sodipodi.sourceforge.net/DTD/sodipodi-0.dtd"
   xmlns="http://www.w3.org/2000/svg"
   xmlns:svg="http://www.w3.org/2000/svg">
  <sodipodi:namedview
     id="namedview7"
     pagecolor="#ffffff"
     bordercolor="#000000"
     borderopacity="1"
     inkscape:showpageshadow="0"
     inkscape:pageopacity="1"
     inkscape:pagecheckerboard="0"
     inkscape:deskcolor="#ffffff"
     inkscape:document-units="mm"
     showgrid="false"
     inkscape:zoom="1.6763728"
     inkscape:cx="21.7732"
     inkscape:cy="-5.0704712"
     inkscape:window-width="1920"
     inkscape:window-height="1017"
     inkscape:window-x="0"
     inkscape:window-y="1012"
     inkscape:window-maximized="1"
     inkscape:current-layer="layer1">
    <inkscape:grid
       type="xygrid"
       id="grid132"
       originx="-105.34302"
       originy="-256.28219"
       spacingy="1"
       spacingx="1"
       units="mm"
       visible="false" />
  </sodipodi:namedview>
  <defs
     id="defs2" />
  <g
     inkscape:label="Ebene 1"
     inkscape:groupmode="layer"
     id="layer1"
     transform="translate(-105.34302,-32.950217)">
    <g
       id="g2"
       transform="translate(26.90147,-6.1964993)">
      <path
         id="use54"
         d="m 79.891731,42.246549 c 0.624522,0 0.911225,-0.572849 0.911225,-0.720645 0,-0.05223 -0.05223,-0.08668 -0.09557,-0.08668 -0.121682,0 -0.05223,0.260588 -0.36449,0.260588 -0.3556,0 -0.521176,-0.38227 -1.059021,-0.38227 h -0.04389 c 0.607853,-0.303926 1.441291,-0.390604 1.441291,-1.27627 0,-0.555625 -0.57285,-0.894556 -1.180703,-0.894556 -0.512287,0 -0.972344,0.338931 -0.972344,0.825103 0,0.216694 0.165021,0.38227 0.38227,0.38227 a 0.37226873,0.37226873 0 0 0 0.37338,-0.38227 c 0,-0.147241 -0.191135,-0.225584 -0.191135,-0.37338 0,-0.19058 0.208359,-0.277813 0.407829,-0.277813 0.303927,0 0.38227,0.37338 0.38227,0.720646 0,1.077357 -1.441292,1.163479 -1.441292,2.118598 0,0.05223 0.05223,0.08668 0.09557,0.08668 0.04334,0 0.07779,-0.02611 0.08668,-0.07779 a 0.37004623,0.37004623 0 0 1 0.37338,-0.348377 c 0.321152,0 0.330042,0.425609 0.894557,0.425609 m 0,0"
         style="stroke-width:0.555625" />
      <path
         id="use55"
         d="m 80.0912,43.511707 -0.677307,-0.39116 a 0.33893123,0.33893123 0 0 1 -0.16502,-0.294481 c 0,-0.19169 0.15613,-0.40005 0.425608,-0.40005 0.347266,0 0.677307,0.173911 0.677307,0.486172 0,0.226139 -0.113347,0.425609 -0.261144,0.599519 m 0.234474,0.130017 c 0.199469,-0.20836 0.3556,-0.442833 0.3556,-0.729536 0,-0.442277 -0.503396,-0.659527 -1.006792,-0.659527 -0.73787,0 -1.12014,0.407829 -1.12014,0.842328 0,0.216693 0.112792,0.460057 0.330041,0.633412 -0.225584,0.216694 -0.442278,0.434499 -0.442278,0.73787 0,0.547291 0.57285,0.885666 1.180704,0.885666 0.790098,0 1.206817,-0.451167 1.206817,-0.920115 0,-0.442833 -0.338931,-0.694531 -0.503396,-0.790098 m -1.215708,0.225583 0.825103,0.468948 c 0.130017,0.08668 0.19058,0.216694 0.19058,0.3556 0,0.234474 -0.182245,0.477837 -0.503396,0.477837 -0.451168,0 -0.842328,-0.286702 -0.842328,-0.703421 0,-0.251698 0.147796,-0.433943 0.330041,-0.598964 m 0,0"
         style="stroke-width:0.555625" />
    </g>
  </g>
</svg>
