<?xml version="1.0" encoding="UTF-8" standalone="no"?>
<!-- Created with Inkscape (http://www.inkscape.org/) -->

<svg
   width="2.361414mm"
   height="6.2052202mm"
   viewBox="0 0 2.361414 6.2052203"
   version="1.1"
   id="svg5"
   inkscape:version="1.4 (e7c3feb100, 2024-10-09)"
   sodipodi:docname="3_2.svg"
   xmlns:inkscape="http://www.inkscape.org/namespaces/inkscape"
   xmlns:sodipodi="http://sodipodi.sourceforge.net/DTD/sodipodi-0.dtd"
   xmlns="http://www.w3.org/2000/svg"
   xmlns:svg="http://www.w3.org/2000/svg">
  <sodipodi:namedview
     id="namedview7"
     pagecolor="#ffffff"
     bordercolor="#000000"
     borderopacity="1"
     inkscape:showpageshadow="0"
     inkscape:pageopacity="1"
     inkscape:pagecheckerboard="0"
     inkscape:deskcolor="#ffffff"
     inkscape:document-units="mm"
     showgrid="false"
     inkscape:zoom="1.6763728"
     inkscape:cx="-133.32357"
     inkscape:cy="-5.0704712"
     inkscape:window-width="1920"
     inkscape:window-height="1017"
     inkscape:window-x="0"
     inkscape:window-y="1012"
     inkscape:window-maximized="1"
     inkscape:current-layer="layer1">
    <inkscape:grid
       type="xygrid"
       id="grid132"
       originx="-105.35563"
       originy="-256.28219"
       spacingy="1"
       spacingx="1"
       units="mm"
       visible="false" />
  </sodipodi:namedview>
  <defs
     id="defs2" />
  <g
     inkscape:label="Ebene 1"
     inkscape:groupmode="layer"
     id="layer1"
     transform="translate(-105.35562,-32.950216)">
    <g
       id="g3"
       transform="translate(16.676002,-8.2102458)">
      <path
         id="use43"
         d="m 90.44985,42.610643 c 0,-0.268922 0.36449,-0.06112 0.36449,-0.75565 0,-0.50284 -0.503397,-0.694531 -1.076802,-0.694531 -0.451167,0 -0.876776,0.261144 -0.876776,0.668972 0,0.173911 0.138906,0.321152 0.312817,0.321152 a 0.32615188,0.32615188 0 0 0 0.321151,-0.321152 c 0,-0.112791 -0.200025,-0.138906 -0.200025,-0.260588 0,-0.182245 0.234474,-0.234474 0.442833,-0.234474 0.277813,0 0.37338,0.21725 0.37338,0.521177 v 0.191135 c 0,0.260032 -0.01722,0.451167 -0.260588,0.451167 h -0.459502 c -0.07779,0 -0.112792,0.05223 -0.112792,0.112792 0,0.05223 0.035,0.112792 0.112792,0.112792 h 0.460613 c 0.242809,0 0.260033,0.173911 0.260033,0.425609 v 0.234473 c 0,0.338932 -0.06112,0.694532 -0.347266,0.694532 -0.234473,0 -0.494506,-0.05223 -0.494506,-0.260588 0,-0.130017 0.225584,-0.156131 0.225584,-0.295037 a 0.3667125,0.3667125 0 0 0 -0.36449,-0.36449 0.36504563,0.36504563 0 0 0 -0.356156,0.36449 c -5.55e-4,0.460057 0.485616,0.73787 0.989013,0.73787 0.642858,0 1.155144,-0.295037 1.155144,-0.876777 0,-0.598963 -0.468392,-0.52951 -0.468392,-0.772318 m 0,0"
         style="stroke-width:0.555625" />
      <path
         id="use44"
         d="m 90.12981,47.365682 c 0.624522,0 0.911225,-0.572849 0.911225,-0.720646 0,-0.05223 -0.05223,-0.08668 -0.09557,-0.08668 -0.121682,0 -0.05223,0.260588 -0.36449,0.260588 -0.3556,0 -0.521176,-0.38227 -1.059021,-0.38227 h -0.0439 c 0.607854,-0.303927 1.441292,-0.390605 1.441292,-1.276271 0,-0.555625 -0.57285,-0.894556 -1.180703,-0.894556 -0.512287,0 -0.972344,0.338931 -0.972344,0.825103 0,0.216694 0.16502,0.38227 0.38227,0.38227 a 0.37226875,0.37226875 0 0 0 0.37338,-0.38227 c 0,-0.14724 -0.191135,-0.225584 -0.191135,-0.37338 0,-0.190579 0.208359,-0.277812 0.407829,-0.277812 0.303926,0 0.38227,0.37338 0.38227,0.720645 0,1.077357 -1.441292,1.163479 -1.441292,2.118598 0,0.05223 0.05223,0.08668 0.09557,0.08668 0.04334,0 0.07779,-0.02611 0.08668,-0.07779 a 0.37004625,0.37004625 0 0 1 0.37338,-0.348377 c 0.321152,0 0.330042,0.425609 0.894557,0.425609 m 0,0"
         style="stroke-width:0.555625" />
    </g>
  </g>
</svg>
