<?xml version="1.0" encoding="UTF-8" standalone="no"?>
<!-- Created with Inkscape (http://www.inkscape.org/) -->

<svg
   width="2.5870483mm"
   height="6.2118921mm"
   viewBox="0 0 2.5870483 6.2118922"
   version="1.1"
   id="svg5"
   inkscape:version="1.4 (e7c3feb100, 2024-10-09)"
   sodipodi:docname="3_4.svg"
   xmlns:inkscape="http://www.inkscape.org/namespaces/inkscape"
   xmlns:sodipodi="http://sodipodi.sourceforge.net/DTD/sodipodi-0.dtd"
   xmlns="http://www.w3.org/2000/svg"
   xmlns:svg="http://www.w3.org/2000/svg">
  <sodipodi:namedview
     id="namedview7"
     pagecolor="#ffffff"
     bordercolor="#000000"
     borderopacity="1"
     inkscape:showpageshadow="0"
     inkscape:pageopacity="1"
     inkscape:pagecheckerboard="0"
     inkscape:deskcolor="#ffffff"
     inkscape:document-units="mm"
     showgrid="false"
     inkscape:zoom="1.3731885"
     inkscape:cx="-85.567276"
     inkscape:cy="73.18733"
     inkscape:window-width="1920"
     inkscape:window-height="1017"
     inkscape:window-x="0"
     inkscape:window-y="1012"
     inkscape:window-maximized="1"
     inkscape:current-layer="layer1">
    <inkscape:grid
       type="xygrid"
       id="grid132"
       originx="-105.24299"
       originy="-256.28216"
       spacingy="1"
       spacingx="1"
       units="mm"
       visible="false" />
  </sodipodi:namedview>
  <defs
     id="defs2" />
  <g
     inkscape:label="Ebene 1"
     inkscape:groupmode="layer"
     id="layer1"
     transform="translate(-105.243,-32.950216)">
    <g
       id="g4"
       transform="translate(29.15121,-11.3436)">
      <path
         id="use58"
         d="m 77.964798,45.743997 c 0,-0.268923 0.36449,-0.06112 0.36449,-0.75565 0,-0.502841 -0.503396,-0.694531 -1.076801,-0.694531 -0.451168,0 -0.876776,0.261143 -0.876776,0.668972 0,0.173911 0.138906,0.321151 0.312817,0.321151 a 0.32615188,0.32615188 0 0 0 0.321151,-0.321151 c 0,-0.112792 -0.200025,-0.138906 -0.200025,-0.260588 0,-0.182245 0.234474,-0.234474 0.442833,-0.234474 0.277812,0 0.37338,0.21725 0.37338,0.521176 v 0.191135 c 0,0.260033 -0.01722,0.451168 -0.260588,0.451168 h -0.459502 c -0.07779,0 -0.112792,0.05223 -0.112792,0.112792 0,0.05223 0.035,0.112792 0.112792,0.112792 h 0.460613 c 0.242808,0 0.260033,0.17391 0.260033,0.425608 v 0.234474 c 0,0.338931 -0.06112,0.694531 -0.347266,0.694531 -0.234474,0 -0.494506,-0.05223 -0.494506,-0.260588 0,-0.130016 0.225583,-0.15613 0.225583,-0.295037 a 0.3667125,0.3667125 0 0 0 -0.36449,-0.36449 0.36504563,0.36504563 0 0 0 -0.356155,0.36449 c -5.56e-4,0.460058 0.485616,0.73787 0.989012,0.73787 0.642858,0 1.155145,-0.295036 1.155145,-0.876776 0,-0.598964 -0.468392,-0.52951 -0.468392,-0.772319 m 0,0"
         style="stroke-width:0.555625" />
      <path
         id="use59"
         d="m 76.968562,47.397537 c -0.05223,0 -0.104458,0.06112 -0.104458,0.130572 0,1.241266 -0.772318,1.944687 -0.772318,2.031365 0,0.06112 0.05167,0.173355 0.233918,0.173355 h 0.937895 c -0.0089,0.312817 -0.20836,0.590629 -0.494506,0.590629 -0.07001,0 -0.09612,0.05223 -0.09612,0.09557 0,0.04334 0.02611,0.08668 0.09557,0.08668 0.303927,0 0.598964,-0.08668 0.902891,-0.08668 0.303927,0 0.598963,0.08668 0.90289,0.08668 0.06112,0 0.08668,-0.04334 0.08668,-0.08668 0,-0.04334 -0.02556,-0.09557 -0.08668,-0.09557 -0.295037,0 -0.486172,-0.277812 -0.503396,-0.590629 h 0.494506 c 0.06945,0 0.113348,-0.06056 0.113348,-0.112792 A 0.10945813,0.10945813 0 0 0 78.56599,49.507245 h -0.495062 v -1.345724 c 0,-0.06945 -0.04334,-0.103902 -0.09557,-0.103902 -0.103902,0 -0.103902,0.173355 -0.242809,0.36449 -0.226139,0.295037 -0.468947,0.243364 -0.468947,0.486172 v 0.598964 h -0.937895 l 1.744662,-1.979136 c 0.01778,-0.01778 0.01778,-0.035 0.01778,-0.04389 0,-0.04334 -0.04334,-0.08668 -0.103901,-0.08668 -0.06112,0 -0.277813,0.09557 -0.521177,0.09557 -0.234474,0 -0.460057,-0.09557 -0.494506,-0.09557 m 0,0"
         style="stroke-width:0.555625" />
    </g>
  </g>
</svg>
