<?xml version="1.0" encoding="UTF-8" standalone="no"?>
<!-- Created with Inkscape (http://www.inkscape.org/) -->

<svg
   width="2.3875201mm"
   height="6.2052188mm"
   viewBox="0 0 2.3875201 6.2052189"
   version="1.1"
   id="svg5"
   inkscape:version="1.4 (e7c3feb100, 2024-10-09)"
   sodipodi:docname="3_8.svg"
   xmlns:inkscape="http://www.inkscape.org/namespaces/inkscape"
   xmlns:sodipodi="http://sodipodi.sourceforge.net/DTD/sodipodi-0.dtd"
   xmlns="http://www.w3.org/2000/svg"
   xmlns:svg="http://www.w3.org/2000/svg">
  <sodipodi:namedview
     id="namedview7"
     pagecolor="#ffffff"
     bordercolor="#000000"
     borderopacity="1"
     inkscape:showpageshadow="0"
     inkscape:pageopacity="1"
     inkscape:pagecheckerboard="0"
     inkscape:deskcolor="#ffffff"
     inkscape:document-units="mm"
     showgrid="false"
     inkscape:zoom="1.4614553"
     inkscape:cx="-275.41041"
     inkscape:cy="29.764852"
     inkscape:window-width="1920"
     inkscape:window-height="1017"
     inkscape:window-x="0"
     inkscape:window-y="1012"
     inkscape:window-maximized="1"
     inkscape:current-layer="layer1">
    <inkscape:grid
       type="xygrid"
       id="grid132"
       originx="-105.34302"
       originy="-256.28217"
       spacingy="1"
       spacingx="1"
       units="mm"
       visible="false" />
  </sodipodi:namedview>
  <defs
     id="defs2" />
  <g
     inkscape:label="Ebene 1"
     inkscape:groupmode="layer"
     id="layer1"
     transform="translate(-105.34302,-32.950217)">
    <g
       id="g5"
       transform="translate(21.450048,-34.388597)">
      <path
         id="use31"
         d="m 85.663749,68.788995 c 0,-0.268923 0.36449,-0.06112 0.36449,-0.75565 0,-0.502841 -0.503397,-0.694531 -1.076802,-0.694531 -0.451167,0 -0.876776,0.261143 -0.876776,0.668972 0,0.173911 0.138906,0.321151 0.312817,0.321151 a 0.32615188,0.32615188 0 0 0 0.321151,-0.321151 c 0,-0.112792 -0.200025,-0.138906 -0.200025,-0.260588 0,-0.182245 0.234474,-0.234474 0.442833,-0.234474 0.277813,0 0.37338,0.21725 0.37338,0.521177 v 0.191135 c 0,0.260032 -0.01722,0.451167 -0.260588,0.451167 h -0.459502 c -0.07779,0 -0.112792,0.05223 -0.112792,0.112792 0,0.05223 0.035,0.112792 0.112792,0.112792 h 0.460613 c 0.242809,0 0.260033,0.17391 0.260033,0.425609 v 0.234473 c 0,0.338932 -0.06112,0.694532 -0.347266,0.694532 -0.234473,0 -0.494506,-0.05223 -0.494506,-0.260589 0,-0.130016 0.225584,-0.15613 0.225584,-0.295036 a 0.3667125,0.3667125 0 0 0 -0.36449,-0.36449 0.36504563,0.36504563 0 0 0 -0.356156,0.36449 c -5.55e-4,0.460057 0.485616,0.73787 0.989013,0.73787 0.642858,0 1.155144,-0.295037 1.155144,-0.876777 0,-0.598963 -0.468392,-0.52951 -0.468392,-0.772318 m 0,0"
         style="stroke-width:0.555625" />
      <path
         id="use32"
         d="m 85.542622,71.703803 -0.677307,-0.39116 a 0.33893125,0.33893125 0 0 1 -0.16502,-0.294481 c 0,-0.191691 0.15613,-0.40005 0.425609,-0.40005 0.347265,0 0.677306,0.173911 0.677306,0.486172 0,0.226139 -0.113347,0.425609 -0.261143,0.599519 m 0.234473,0.130016 c 0.19947,-0.208359 0.3556,-0.442833 0.3556,-0.729535 0,-0.442278 -0.503396,-0.659527 -1.006792,-0.659527 -0.73787,0 -1.12014,0.407829 -1.12014,0.842327 0,0.216694 0.112792,0.460058 0.330041,0.633413 -0.225583,0.216694 -0.442277,0.434499 -0.442277,0.73787 0,0.54729 0.572849,0.885666 1.180703,0.885666 0.790099,0 1.206817,-0.451167 1.206817,-0.920115 0,-0.442833 -0.338931,-0.694531 -0.503396,-0.790099 m -1.215707,0.225584 0.825103,0.468948 c 0.130016,0.08668 0.190579,0.216693 0.190579,0.3556 0,0.234473 -0.182245,0.477837 -0.503396,0.477837 -0.451168,0 -0.842328,-0.286702 -0.842328,-0.703421 0,-0.251698 0.147797,-0.433943 0.330042,-0.598964 m 0,0"
         style="stroke-width:0.555625" />
    </g>
  </g>
</svg>
