<?xml version="1.0" encoding="UTF-8" standalone="no"?>
<!-- Created with Inkscape (http://www.inkscape.org/) -->

<svg
   width="2.5870483mm"
   height="6.2135549mm"
   viewBox="0 0 2.5870483 6.2135549"
   version="1.1"
   id="svg5"
   inkscape:version="1.4 (e7c3feb100, 2024-10-09)"
   sodipodi:docname="4_8.svg"
   xmlns:inkscape="http://www.inkscape.org/namespaces/inkscape"
   xmlns:sodipodi="http://sodipodi.sourceforge.net/DTD/sodipodi-0.dtd"
   xmlns="http://www.w3.org/2000/svg"
   xmlns:svg="http://www.w3.org/2000/svg">
  <sodipodi:namedview
     id="namedview7"
     pagecolor="#ffffff"
     bordercolor="#000000"
     borderopacity="1"
     inkscape:showpageshadow="0"
     inkscape:pageopacity="1"
     inkscape:pagecheckerboard="0"
     inkscape:deskcolor="#ffffff"
     inkscape:document-units="mm"
     showgrid="false"
     inkscape:zoom="2.881251"
     inkscape:cx="-36.963111"
     inkscape:cy="-4.3383933"
     inkscape:window-width="1920"
     inkscape:window-height="1017"
     inkscape:window-x="0"
     inkscape:window-y="1012"
     inkscape:window-maximized="1"
     inkscape:current-layer="layer1">
    <inkscape:grid
       type="xygrid"
       id="grid132"
       originx="-105.24299"
       originy="-256.28217"
       spacingy="1"
       spacingx="1"
       units="mm"
       visible="false" />
  </sodipodi:namedview>
  <defs
     id="defs2" />
  <g
     inkscape:label="Ebene 1"
     inkscape:groupmode="layer"
     id="layer1"
     transform="translate(-105.243,-32.950217)">
    <g
       id="g6"
       transform="translate(21.624503,-31.643385)">
      <path
         id="use119"
         d="m 84.495269,64.593602 c -0.05223,0 -0.104457,0.06112 -0.104457,0.130572 0,1.241266 -0.772319,1.944687 -0.772319,2.031365 0,0.06112 0.05167,0.173355 0.233918,0.173355 h 0.937895 c -0.0089,0.312817 -0.208359,0.590629 -0.494506,0.590629 -0.07001,0 -0.09612,0.05223 -0.09612,0.09557 0,0.04334 0.02611,0.08668 0.09557,0.08668 0.303927,0 0.598964,-0.08668 0.902891,-0.08668 0.303927,0 0.598964,0.08668 0.902891,0.08668 0.06112,0 0.08668,-0.04334 0.08668,-0.08668 0,-0.04334 -0.02556,-0.09557 -0.08668,-0.09557 -0.295037,0 -0.486172,-0.277812 -0.503397,-0.590629 h 0.494506 c 0.06945,0 0.113348,-0.06056 0.113348,-0.112792 A 0.10945813,0.10945813 0 0 0 86.092691,66.70331 h -0.495062 v -1.345724 c 0,-0.06945 -0.04334,-0.103901 -0.09557,-0.103901 -0.103902,0 -0.103902,0.173355 -0.242808,0.36449 -0.22614,0.295036 -0.468948,0.243363 -0.468948,0.486171 v 0.598964 h -0.937895 l 1.744663,-1.979136 c 0.01778,-0.01778 0.01778,-0.035 0.01778,-0.04389 0,-0.04334 -0.04334,-0.08668 -0.103902,-0.08668 -0.06112,0 -0.277813,0.09557 -0.521176,0.09557 -0.234474,0 -0.460058,-0.09557 -0.494507,-0.09557 m 0,0"
         style="stroke-width:0.555625" />
      <path
         id="use120"
         d="m 85.370934,68.966927 -0.677307,-0.39116 a 0.33893125,0.33893125 0 0 1 -0.16502,-0.294481 c 0,-0.191691 0.15613,-0.40005 0.425609,-0.40005 0.347265,0 0.677306,0.17391 0.677306,0.486172 0,0.226139 -0.113347,0.425608 -0.261143,0.599519 m 0.234473,0.130016 c 0.19947,-0.208359 0.3556,-0.442833 0.3556,-0.729535 0,-0.442278 -0.503396,-0.659527 -1.006792,-0.659527 -0.73787,0 -1.12014,0.407828 -1.12014,0.842327 0,0.216694 0.112792,0.460058 0.330041,0.633413 -0.225584,0.216693 -0.442277,0.434498 -0.442277,0.73787 0,0.54729 0.572849,0.885666 1.180703,0.885666 0.790099,0 1.206817,-0.451168 1.206817,-0.920115 0,-0.442833 -0.338931,-0.694531 -0.503396,-0.790099 m -1.215707,0.225584 0.825103,0.468947 c 0.130016,0.08668 0.190579,0.216694 0.190579,0.355601 0,0.234473 -0.182245,0.477837 -0.503396,0.477837 -0.451168,0 -0.842328,-0.286702 -0.842328,-0.703421 0,-0.251698 0.147797,-0.433943 0.330042,-0.598964 m 0,0"
         style="stroke-width:0.555625" />
    </g>
  </g>
</svg>
