<?xml version="1.0" encoding="UTF-8" standalone="no"?>
<!-- Created with Inkscape (http://www.inkscape.org/) -->

<svg
   width="2.5870924mm"
   height="6.2107821mm"
   viewBox="0 0 2.5870924 6.2107821"
   version="1.1"
   id="svg5"
   inkscape:version="1.4 (e7c3feb100, 2024-10-09)"
   sodipodi:docname="6_4.svg"
   xmlns:inkscape="http://www.inkscape.org/namespaces/inkscape"
   xmlns:sodipodi="http://sodipodi.sourceforge.net/DTD/sodipodi-0.dtd"
   xmlns="http://www.w3.org/2000/svg"
   xmlns:svg="http://www.w3.org/2000/svg">
  <sodipodi:namedview
     id="namedview7"
     pagecolor="#ffffff"
     bordercolor="#000000"
     borderopacity="1"
     inkscape:showpageshadow="0"
     inkscape:pageopacity="1"
     inkscape:pagecheckerboard="0"
     inkscape:deskcolor="#ffffff"
     inkscape:document-units="mm"
     showgrid="false"
     inkscape:zoom="1.5759859"
     inkscape:cx="-157.04455"
     inkscape:cy="6.0279727"
     inkscape:window-width="1920"
     inkscape:window-height="1017"
     inkscape:window-x="0"
     inkscape:window-y="1012"
     inkscape:window-maximized="1"
     inkscape:current-layer="layer1">
    <inkscape:grid
       type="xygrid"
       id="grid132"
       originx="-105.24296"
       originy="-256.28215"
       spacingy="1"
       spacingx="1"
       units="mm"
       visible="false" />
  </sodipodi:namedview>
  <defs
     id="defs2" />
  <g
     inkscape:label="Ebene 1"
     inkscape:groupmode="layer"
     id="layer1"
     transform="translate(-105.24294,-32.950216)">
    <g
       id="g9"
       transform="translate(-7.2581062,-27.934457)">
      <path
         id="use136-3"
         d="m 113.79287,62.386527 c 0.33893,0 0.33893,0.312817 0.33893,0.711756 0,0.399495 0,0.703421 -0.33893,0.703421 -0.26059,0 -0.29559,-0.191135 -0.29559,-0.460057 v -0.494506 c 0,-0.269478 0.035,-0.460614 0.29559,-0.460614 m -0.29559,-0.103901 c 0,-0.156687 -0.008,-0.321707 -0.008,-0.468948 0,-0.416719 0.0611,-0.75565 0.43394,-0.75565 0.18224,0 0.37338,0.06112 0.37338,0.22614 0,0.130016 -0.21669,0.138906 -0.21669,0.268922 0,0.200025 0.15557,0.36449 0.3556,0.36449 A 0.3667125,0.3667125 0 0 0 114.8,61.55309 c 0,-0.407829 -0.42506,-0.668417 -0.87678,-0.668417 -0.74621,0 -1.22404,0.74676 -1.22404,1.545193 0,0.781765 0.38227,1.554083 1.09402,1.554083 0.64231,0 1.09403,-0.277812 1.09403,-0.885666 0,-0.607298 -0.45172,-0.894556 -1.09458,-0.894556 a 0.57785,0.57785 0 0 0 -0.29448,0.0789 m 0,0"
         style="stroke-width:0.555625" />
      <path
         id="use137-6"
         d="m 113.37782,63.987284 c -0.0522,0 -0.10446,0.06112 -0.10446,0.130572 0,1.241266 -0.77231,1.944687 -0.77231,2.031365 0,0.06112 0.0517,0.173355 0.23391,0.173355 h 0.9379 c -0.009,0.312816 -0.20836,0.590629 -0.49451,0.590629 -0.07,0 -0.0961,0.05223 -0.0961,0.09557 0,0.04334 0.0261,0.08668 0.0956,0.08668 0.30392,0 0.59896,-0.08668 0.90289,-0.08668 0.30392,0 0.59896,0.08668 0.90289,0.08668 0.0611,0 0.0867,-0.04334 0.0867,-0.08668 0,-0.04334 -0.0256,-0.09557 -0.0867,-0.09557 -0.29504,0 -0.48617,-0.277813 -0.5034,-0.590629 h 0.49451 c 0.0695,0 0.11335,-0.06056 0.11335,-0.112792 a 0.10945813,0.10945813 0 0 0 -0.1128,-0.112792 h -0.49506 v -1.345724 c 0,-0.06945 -0.0433,-0.103902 -0.0956,-0.103902 -0.1039,0 -0.1039,0.173355 -0.2428,0.36449 -0.22614,0.295037 -0.46895,0.243364 -0.46895,0.486172 v 0.598964 h -0.9379 l 1.74467,-1.979136 c 0.0178,-0.01778 0.0178,-0.035 0.0178,-0.0439 0,-0.04334 -0.0433,-0.08668 -0.10391,-0.08668 -0.0611,0 -0.27781,0.09557 -0.52117,0.09557 -0.23448,0 -0.46006,-0.09557 -0.49451,-0.09557 m 0,0"
         style="stroke-width:0.555625" />
    </g>
  </g>
</svg>
