<?xml version="1.0" encoding="UTF-8" standalone="no"?>
<!-- Created with Inkscape (http://www.inkscape.org/) -->

<svg
   width="2.3875201mm"
   height="6.2046652mm"
   viewBox="0 0 2.3875201 6.2046653"
   version="1.1"
   id="svg5"
   inkscape:version="1.4 (e7c3feb100, 2024-10-09)"
   sodipodi:docname="6_8.svg"
   xmlns:inkscape="http://www.inkscape.org/namespaces/inkscape"
   xmlns:sodipodi="http://sodipodi.sourceforge.net/DTD/sodipodi-0.dtd"
   xmlns="http://www.w3.org/2000/svg"
   xmlns:svg="http://www.w3.org/2000/svg">
  <sodipodi:namedview
     id="namedview7"
     pagecolor="#ffffff"
     bordercolor="#000000"
     borderopacity="1"
     inkscape:showpageshadow="0"
     inkscape:pageopacity="1"
     inkscape:pagecheckerboard="0"
     inkscape:deskcolor="#ffffff"
     inkscape:document-units="mm"
     showgrid="false"
     inkscape:zoom="1.8292338"
     inkscape:cx="-133.66252"
     inkscape:cy="7.9268161"
     inkscape:window-width="1920"
     inkscape:window-height="1017"
     inkscape:window-x="0"
     inkscape:window-y="1012"
     inkscape:window-maximized="1"
     inkscape:current-layer="layer1">
    <inkscape:grid
       type="xygrid"
       id="grid132"
       originx="-105.34302"
       originy="-256.28217"
       spacingy="1"
       spacingx="1"
       units="mm"
       visible="false" />
  </sodipodi:namedview>
  <defs
     id="defs2" />
  <g
     inkscape:label="Ebene 1"
     inkscape:groupmode="layer"
     id="layer1"
     transform="translate(-105.34302,-32.950217)">
    <g
       id="g7"
       transform="translate(1.87244,-6.2948213)">
      <path
         id="use51"
         d="m 104.65906,40.746892 c 0.33893,0 0.33893,0.312817 0.33893,0.711756 0,0.399495 0,0.703421 -0.33893,0.703421 -0.26059,0 -0.29559,-0.191135 -0.29559,-0.460057 v -0.494506 c 0,-0.269479 0.035,-0.460614 0.29559,-0.460614 m -0.29559,-0.103901 c 0,-0.156687 -0.008,-0.321707 -0.008,-0.468948 0,-0.416719 0.0611,-0.75565 0.43395,-0.75565 0.18224,0 0.37338,0.06112 0.37338,0.226139 0,0.130017 -0.2167,0.138907 -0.2167,0.268923 0,0.200025 0.15558,0.36449 0.3556,0.36449 a 0.36671252,0.36671252 0 0 0 0.36449,-0.36449 c 0,-0.407829 -0.42505,-0.668417 -0.87677,-0.668417 -0.74621,0 -1.22405,0.74676 -1.22405,1.545193 0,0.781765 0.38227,1.554083 1.09403,1.554083 0.6423,0 1.09403,-0.277812 1.09403,-0.885666 0,-0.607298 -0.45173,-0.894556 -1.09459,-0.894556 a 0.57785003,0.57785003 0 0 0 -0.29448,0.0789 m 0,0"
         style="stroke-width:0.555625" />
      <path
         id="use52"
         d="m 105.12023,43.609473 -0.67731,-0.39116 a 0.33893127,0.33893127 0 0 1 -0.16502,-0.294482 c 0,-0.19169 0.15613,-0.40005 0.42561,-0.40005 0.34727,0 0.67731,0.173911 0.67731,0.486172 0,0.22614 -0.11335,0.425609 -0.26115,0.59952 m 0.23448,0.130016 c 0.19947,-0.20836 0.3556,-0.442833 0.3556,-0.729536 0,-0.442277 -0.5034,-0.659527 -1.0068,-0.659527 -0.73787,0 -1.12014,0.407829 -1.12014,0.842328 0,0.216694 0.1128,0.460057 0.33005,0.633412 -0.22559,0.216694 -0.44228,0.434499 -0.44228,0.73787 0,0.547291 0.57285,0.885667 1.1807,0.885667 0.7901,0 1.20682,-0.451168 1.20682,-0.920115 0,-0.442833 -0.33893,-0.694532 -0.5034,-0.790099 m -1.21571,0.225584 0.82511,0.468947 c 0.13001,0.08668 0.19058,0.216694 0.19058,0.3556 0,0.234474 -0.18225,0.477838 -0.5034,0.477838 -0.45117,0 -0.84233,-0.286703 -0.84233,-0.703422 0,-0.251698 0.1478,-0.433943 0.33004,-0.598963 m 0,0"
         style="stroke-width:0.555625" />
    </g>
  </g>
</svg>
