<?xml version="1.0" encoding="UTF-8" standalone="no"?>
<!-- Created with Inkscape (http://www.inkscape.org/) -->

<svg
   width="2.6303699mm"
   height="4.3405943mm"
   viewBox="0 0 2.6303699 4.3405944"
   version="1.1"
   id="svg5"
   inkscape:version="1.4 (e7c3feb100, 2024-10-09)"
   sodipodi:docname="common.svg"
   xmlns:inkscape="http://www.inkscape.org/namespaces/inkscape"
   xmlns:sodipodi="http://sodipodi.sourceforge.net/DTD/sodipodi-0.dtd"
   xmlns="http://www.w3.org/2000/svg"
   xmlns:svg="http://www.w3.org/2000/svg">
  <sodipodi:namedview
     id="namedview7"
     pagecolor="#ffffff"
     bordercolor="#000000"
     borderopacity="1"
     inkscape:showpageshadow="0"
     inkscape:pageopacity="1"
     inkscape:pagecheckerboard="0"
     inkscape:deskcolor="#ffffff"
     inkscape:document-units="mm"
     showgrid="false"
     inkscape:zoom="33.077914"
     inkscape:cx="4.1568522"
     inkscape:cy="3.5219875"
     inkscape:window-width="1920"
     inkscape:window-height="1017"
     inkscape:window-x="0"
     inkscape:window-y="1012"
     inkscape:window-maximized="1"
     inkscape:current-layer="layer1"
     showguides="true">
    <inkscape:grid
       type="xygrid"
       id="grid132"
       originx="-105.22116"
       originy="-256.28217"
       spacingy="1"
       spacingx="1"
       units="mm"
       visible="false" />
  </sodipodi:namedview>
  <defs
     id="defs2" />
  <g
     inkscape:label="Ebene 1"
     inkscape:groupmode="layer"
     id="layer1"
     transform="translate(-105.22116,-32.950216)">
    <path
       id="use789"
       d="m 106.77526,33.453638 c -1.44129,0 -1.55408,1.26738 -1.55408,1.666875 0,1.146254 0.6773,1.666875 1.55408,1.666875 0.79843,0 1.07624,-1.015683 1.07624,-1.12014 0,-0.06945 -0.0517,-0.121127 -0.11279,-0.121127 a 0.111125,0.111125 0 0 0 -0.11279,0.09557 c -0.1039,0.468392 -0.39949,0.911225 -0.85066,0.911225 -0.66842,0 -0.70342,-0.477838 -0.70342,-1.206818 v -0.451169 c 0,-0.729536 0.035,-1.206818 0.70342,-1.206818 0.26059,0 0.46895,0.138907 0.61674,0.3556 -0.25225,0.0089 -0.40838,0.21725 -0.40838,0.434499 0,0.286147 0.2517,0.425053 0.42505,0.425053 0.20003,0 0.37338,-0.182245 0.37338,-0.398938 5.6e-4,-0.295593 -0.30337,-1.050687 -1.00679,-1.050687 m 0,0"
       style="stroke-width:0.555625" />
  </g>
</svg>
