<?xml version="1.0" encoding="UTF-8" standalone="no"?>
<!-- Created with Inkscape (http://www.inkscape.org/) -->

<svg
   width="2.6303699mm"
   height="4.3405943mm"
   viewBox="0 0 2.6303699 4.3405944"
   version="1.1"
   id="svg5"
   inkscape:version="1.4 (e7c3feb100, 2024-10-09)"
   sodipodi:docname="cut.svg"
   xmlns:inkscape="http://www.inkscape.org/namespaces/inkscape"
   xmlns:sodipodi="http://sodipodi.sourceforge.net/DTD/sodipodi-0.dtd"
   xmlns="http://www.w3.org/2000/svg"
   xmlns:svg="http://www.w3.org/2000/svg">
  <sodipodi:namedview
     id="namedview7"
     pagecolor="#ffffff"
     bordercolor="#000000"
     borderopacity="1"
     inkscape:showpageshadow="0"
     inkscape:pageopacity="1"
     inkscape:pagecheckerboard="0"
     inkscape:deskcolor="#ffffff"
     inkscape:document-units="mm"
     showgrid="false"
     inkscape:zoom="33.077914"
     inkscape:cx="4.1568522"
     inkscape:cy="3.5219875"
     inkscape:window-width="1920"
     inkscape:window-height="1017"
     inkscape:window-x="0"
     inkscape:window-y="1012"
     inkscape:window-maximized="1"
     inkscape:current-layer="layer1"
     showguides="true">
    <inkscape:grid
       type="xygrid"
       id="grid132"
       originx="-105.22116"
       originy="-256.28217"
       spacingy="1"
       spacingx="1"
       units="mm"
       visible="false" />
  </sodipodi:namedview>
  <defs
     id="defs2" />
  <g
     inkscape:label="Ebene 1"
     inkscape:groupmode="layer"
     id="layer1"
     transform="translate(-105.22116,-32.950216)">
    <path
       id="use94"
       d="m 107.85153,35.667274 c 0,-0.06945 -0.0517,-0.121126 -0.1128,-0.121126 a 0.111125,0.111125 0 0 0 -0.11279,0.09557 c -0.1039,0.468392 -0.39949,0.911225 -0.85066,0.911225 -0.0522,0 -0.0956,0 -0.13891,-0.0083 v -2.848134 c 0.0433,-0.0083 0.0867,-0.0083 0.13891,-0.0083 0.26059,0 0.46895,0.138906 0.61674,0.3556 -0.25225,0.0089 -0.40838,0.217249 -0.40838,0.434499 0,0.286146 0.2517,0.425053 0.42505,0.425053 0.20003,0 0.37338,-0.182245 0.37338,-0.398939 5.6e-4,-0.295592 -0.30337,-1.050687 -1.00679,-1.050687 h -0.13891 V 33.06306 a 0.10945813,0.10945813 0 0 0 -0.11279,-0.112792 h -0.0956 c -0.0611,0 -0.10446,0.04334 -0.10446,0.112792 v 0.442833 c -0.96345,0.234474 -1.10236,1.128474 -1.10236,1.614646 0,1.180703 0.70343,1.510745 1.10236,1.614646 v 0.442833 c 0,0.06945 0.0439,0.112792 0.10446,0.112792 h 0.0956 c 0.0611,0 0.11279,-0.04334 0.11279,-0.112792 v -0.390604 h 0.13891 c 0.79843,0 1.07625,-1.015682 1.07625,-1.12014 m -1.52797,0.76454 c -0.23392,-0.190579 -0.2517,-0.581184 -0.2517,-1.085135 v -0.451168 c 0,-0.503396 0.0178,-0.894556 0.2517,-1.085136 z m 0,0"
       style="stroke-width:0.555625" />
  </g>
</svg>
